<svg width="40" height="40" viewBox="0 0 40 40" fill="none" xmlns="http://www.w3.org/2000/svg">
<path fill-rule="evenodd" clip-rule="evenodd" d="M7.8446 5.83339C6.7339 5.83339 5.8335 6.73379 5.8335 7.8445V32.1555C5.8335 33.2662 6.7339 34.1666 7.84461 34.1666H32.1557C33.2664 34.1666 34.1668 33.2662 34.1668 32.1555V7.8445C34.1668 6.73379 33.2664 5.83339 32.1557 5.83339H7.8446ZM12.193 14.6323C13.5505 14.6323 14.6509 13.5319 14.6509 12.1744C14.6509 10.8169 13.5505 9.7165 12.193 9.7165C10.8356 9.7165 9.73512 10.8169 9.73512 12.1744C9.73512 13.5319 10.8356 14.6323 12.193 14.6323ZM16.902 16.4488H20.9755V18.3149C20.9755 18.3149 22.0809 16.1041 25.0886 16.1041C27.7716 16.1041 29.9941 17.4258 29.9941 21.4544V29.9497H25.7728V22.4838C25.7728 20.1073 24.504 19.8459 23.5372 19.8459C21.5307 19.8459 21.1872 21.5766 21.1872 22.7938V29.9497H16.902V16.4488ZM14.3357 16.4488H10.0504V29.9497H14.3357V16.4488Z" fill="black"/>
</svg>
