<svg width="40" height="40" viewBox="0 0 40 40" fill="none" xmlns="http://www.w3.org/2000/svg">
<path fill-rule="evenodd" clip-rule="evenodd" d="M19.9986 5C11.7157 5 5 11.7157 5 20.0005C5 26.6277 9.29755 32.2495 15.2581 34.2339C16.0086 34.3711 16.2821 33.9079 16.2821 33.5101C16.2821 33.1546 16.2692 32.2108 16.2619 30.9594C12.0895 31.8655 11.2092 28.9482 11.2092 28.9482C10.5269 27.2162 9.54342 26.7548 9.54342 26.7548C8.1815 25.8238 9.64655 25.8423 9.64655 25.8423C11.1521 25.9491 11.944 27.3883 11.944 27.3883C13.282 29.6803 15.4552 29.0182 16.3097 28.6352C16.446 27.6655 16.8328 27.0044 17.2619 26.6296C13.9312 26.2511 10.4293 24.9638 10.4293 19.2159C10.4293 17.5787 11.014 16.2398 11.9735 15.1909C11.8188 14.8115 11.3041 13.2866 12.1199 11.2212C12.1199 11.2212 13.3796 10.8179 16.2453 12.759C17.4414 12.4266 18.7251 12.2599 20.0005 12.2544C21.274 12.2599 22.5576 12.4266 23.7556 12.759C26.6194 10.8179 27.8764 11.2212 27.8764 11.2212C28.695 13.2866 28.1803 14.8115 28.0256 15.1909C28.9869 16.2398 29.568 17.5787 29.568 19.2159C29.568 24.9785 26.0605 26.2465 22.7188 26.6176C23.2575 27.0808 23.7372 27.9961 23.7372 29.3958C23.7372 31.4004 23.7188 33.0184 23.7188 33.5101C23.7188 33.9116 23.9886 34.3784 24.7501 34.232C30.7061 32.2439 35 26.6259 35 20.0005C35 11.7157 28.2834 5 19.9986 5Z" fill="black"/>
</svg>
