<svg width="40" height="40" viewBox="0 0 40 40" fill="none" xmlns="http://www.w3.org/2000/svg">
<path fill-rule="evenodd" clip-rule="evenodd" d="M13.7713 10C14.59 9.98481 15.4076 10.0688 16.2063 10.25C16.8786 10.3968 17.517 10.67 18.0875 11.055C18.6144 11.4379 19.0312 11.9526 19.2963 12.5475C19.6008 13.2791 19.7478 14.0666 19.7275 14.8588C19.7621 15.7286 19.5399 16.5893 19.0888 17.3338C18.6141 18.0369 17.958 18.5984 17.19 18.9588C18.2322 19.2397 19.1399 19.8833 19.75 20.7738C20.3357 21.7173 20.63 22.8125 20.5963 23.9225C20.6156 24.8075 20.4326 25.6852 20.0613 26.4888C19.718 27.1897 19.2154 27.8006 18.5938 28.2725C17.9537 28.7392 17.2334 29.0845 16.4688 29.2913C15.6758 29.5106 14.8565 29.6208 14.0338 29.6188H5V10H13.7713ZM13.25 17.935C13.8933 17.9615 14.5266 17.7689 15.0463 17.3888C15.2951 17.1672 15.4887 16.8905 15.6116 16.5808C15.7344 16.2711 15.7831 15.9369 15.7538 15.605C15.7704 15.2174 15.6932 14.8314 15.5288 14.48C15.3892 14.2002 15.1723 13.9664 14.9038 13.8063C14.6317 13.63 14.3261 13.5121 14.0063 13.46C13.6592 13.3928 13.306 13.3622 12.9525 13.3688H9.0925V17.9525H13.25V17.935ZM13.475 26.2875C13.8641 26.2928 14.2523 26.2508 14.6313 26.1625C14.9775 26.086 15.306 25.9439 15.5988 25.7438C15.8856 25.5437 16.1173 25.2746 16.2725 24.9613C16.4524 24.5617 16.5351 24.1252 16.5138 23.6875C16.5528 23.2887 16.4999 22.8862 16.3593 22.5109C16.2187 22.1356 15.994 21.7975 15.7025 21.5225C15.0846 21.0674 14.3274 20.842 13.5613 20.885H9.0925V26.2875H13.475Z" fill="black"/>
<path fill-rule="evenodd" clip-rule="evenodd" d="M26.425 26.215C26.7462 26.5127 27.1246 26.7421 27.5372 26.889C27.9498 27.036 28.3879 27.0976 28.825 27.07C29.518 27.0875 30.1974 26.8767 30.7588 26.47C31.2154 26.1731 31.5612 25.7337 31.7425 25.22H35.0063C34.6585 26.6823 33.8093 27.9765 32.6063 28.8775C31.4521 29.6435 30.0883 30.0315 28.7038 29.9875C27.7156 30.0005 26.735 29.8147 25.82 29.4413C24.9924 29.0961 24.2501 28.5744 23.645 27.9125C23.0422 27.219 22.5792 26.4155 22.2813 25.5463C21.9469 24.5746 21.7832 23.5525 21.7975 22.525C21.7914 21.5148 21.9606 20.5112 22.2975 19.5588C22.7502 18.2189 23.6156 17.0569 24.7697 16.2394C25.9238 15.422 27.3071 14.9912 28.7213 15.0088C29.7653 14.9869 30.7977 15.2313 31.7213 15.7188C32.556 16.1765 33.2762 16.8176 33.8275 17.5938C34.3915 18.4082 34.7957 19.3223 35.0188 20.2875C35.2634 21.324 35.3506 22.3913 35.2775 23.4538H25.5563C25.4775 24.4519 25.7889 25.4417 26.425 26.215ZM30.69 18.7538C30.418 18.4817 30.0908 18.271 29.7305 18.136C29.3702 18.0011 28.9851 17.9449 28.6013 17.9713C28.092 17.9518 27.5864 18.0647 27.1338 18.2988C26.7749 18.4963 26.4581 18.7621 26.2013 19.0813C25.9736 19.3805 25.804 19.7196 25.7013 20.0813C25.6086 20.3829 25.5508 20.694 25.5288 21.0088H31.55C31.4975 20.1883 31.1987 19.4028 30.6925 18.755L30.69 18.7538Z" fill="black"/>
<path d="M24.7525 11.31H32.2975V13.2388H24.7525V11.31Z" fill="black"/>
</svg>
