<svg width="40" height="40" viewBox="0 0 40 40" fill="none" xmlns="http://www.w3.org/2000/svg">
<path fill-rule="evenodd" clip-rule="evenodd" d="M33.2052 8.53531C34.6508 8.92452 35.7906 10.0643 36.1798 11.51C36.9027 14.151 36.8749 19.6555 36.8749 19.6555C36.8749 19.6555 36.8749 25.1322 36.1798 27.7733C35.7906 29.2189 34.6508 30.3587 33.2052 30.7479C30.5641 31.443 19.9999 31.443 19.9999 31.443C19.9999 31.443 9.46352 31.443 6.79467 30.7201C5.34904 30.3309 4.20922 29.1911 3.82001 27.7455C3.125 25.1322 3.125 19.6277 3.125 19.6277C3.125 19.6277 3.125 14.151 3.82001 11.51C4.20922 10.0643 5.37684 8.89672 6.79467 8.50751C9.43572 7.8125 19.9999 7.8125 19.9999 7.8125C19.9999 7.8125 30.5641 7.8125 33.2052 8.53531ZM25.421 19.4347L16.636 24.4944V14.375L25.421 19.4347Z" fill="black"/>
</svg>
